<svg width="42" height="41" viewBox="0 0 42 41" fill="none" xmlns="http://www.w3.org/2000/svg">
<g filter="url(#filter0_d_43_198)">
<path d="M17.6056 6.07636L19.1912 4.50046C19.8625 3.83318 20.9481 3.83318 21.6123 4.50046L35.4965 18.2932C36.1678 18.9605 36.1678 20.0395 35.4965 20.6997L21.6123 34.4995C20.941 35.1668 19.8554 35.1668 19.1912 34.4995L17.6056 32.9236C16.9271 32.2493 16.9414 31.149 17.6342 30.4888L26.2404 22.3395L5.7141 22.3395C4.7642 22.3395 4 21.5799 4 20.6358L4 18.3642C4 17.4201 4.7642 16.6605 5.7141 16.6605L26.2404 16.6605L17.6342 8.51122C16.9343 7.85104 16.92 6.75074 17.6056 6.07636Z" fill="white"/>
<path d="M21.2195 14.6605L5.7141 14.6605C3.67113 14.6605 2 16.304 2 18.3642L2 20.6358C2 22.6959 3.67113 24.3395 5.7141 24.3395L21.2195 24.3395L16.259 29.0365L16.2545 29.0409C14.7511 30.4735 14.7144 32.8698 16.1957 34.3421L17.7737 35.9105C17.7752 35.912 17.7767 35.9135 17.7781 35.915C19.2286 37.3673 21.5765 37.355 23.0222 35.9181L36.9033 22.1213C38.3713 20.6729 38.3588 18.3183 36.9064 16.8747L36.906 16.8743L23.0251 3.08476C21.5745 1.63269 19.2269 1.64509 17.7813 3.08194L16.2032 4.65049C16.2017 4.65194 16.2002 4.65339 16.1987 4.65485C14.7052 6.12863 14.7432 8.53168 16.26 9.96436C16.2606 9.96495 16.2613 9.96555 16.2619 9.96614L21.2195 14.6605Z" stroke="black" stroke-width="4"/>
</g>
<defs>
<filter id="filter0_d_43_198" x="0" y="0" width="42" height="41" filterUnits="userSpaceOnUse" color-interpolation-filters="sRGB">
<feFlood flood-opacity="0" result="BackgroundImageFix"/>
<feColorMatrix in="SourceAlpha" type="matrix" values="0 0 0 0 0 0 0 0 0 0 0 0 0 0 0 0 0 0 127 0" result="hardAlpha"/>
<feOffset dx="2" dy="2"/>
<feComposite in2="hardAlpha" operator="out"/>
<feColorMatrix type="matrix" values="0 0 0 0 0 0 0 0 0 0 0 0 0 0 0 0 0 0 1 0"/>
<feBlend mode="normal" in2="BackgroundImageFix" result="effect1_dropShadow_43_198"/>
<feBlend mode="normal" in="SourceGraphic" in2="effect1_dropShadow_43_198" result="shape"/>
</filter>
</defs>
</svg>
