<svg width="42" height="41" viewBox="0 0 42 41" fill="none" xmlns="http://www.w3.org/2000/svg">
<g filter="url(#filter0_d_43_197)">
<path d="M22.3944 32.9236L20.8088 34.4995C20.1375 35.1668 19.0519 35.1668 18.3877 34.4995L4.50352 20.7068C3.83216 20.0395 3.83216 18.9605 4.50352 18.3003L18.3877 4.50046C19.059 3.83318 20.1446 3.83318 20.8088 4.50046L22.3944 6.07637C23.0729 6.75074 23.0586 7.85104 22.3658 8.51122L13.7596 16.6605H34.2859C35.2358 16.6605 36 17.4201 36 18.3642V20.6358C36 21.5799 35.2358 22.3395 34.2859 22.3395H13.7596L22.3658 30.4888C23.0657 31.149 23.08 32.2493 22.3944 32.9236Z" fill="white"/>
<path d="M18.7805 24.3395H34.2859C36.3289 24.3395 38 22.696 38 20.6358V18.3642C38 16.304 36.3289 14.6605 34.2859 14.6605H18.7805L23.741 9.96346L23.7455 9.95909C25.2489 8.52646 25.2856 6.13018 23.8043 4.65786L22.2263 3.0895C22.2248 3.08799 22.2233 3.08648 22.2218 3.08497C20.7713 1.63268 18.4235 1.64502 16.9778 3.08194L3.0967 16.8787C1.62872 18.3271 1.64119 20.6817 3.09361 22.1253L3.09398 22.1257L16.9749 35.9152C18.4255 37.3673 20.7731 37.3549 22.2187 35.9181L23.7968 34.3495C23.7983 34.3481 23.7998 34.3466 23.8013 34.3451C25.2947 32.8714 25.2568 30.4684 23.74 29.0357C23.7394 29.0351 23.7388 29.0345 23.7381 29.0339L18.7805 24.3395Z" stroke="black" stroke-width="4"/>
</g>
<defs>
<filter id="filter0_d_43_197" x="0" y="0" width="42" height="41" filterUnits="userSpaceOnUse" color-interpolation-filters="sRGB">
<feFlood flood-opacity="0" result="BackgroundImageFix"/>
<feColorMatrix in="SourceAlpha" type="matrix" values="0 0 0 0 0 0 0 0 0 0 0 0 0 0 0 0 0 0 127 0" result="hardAlpha"/>
<feOffset dx="2" dy="2"/>
<feComposite in2="hardAlpha" operator="out"/>
<feColorMatrix type="matrix" values="0 0 0 0 0 0 0 0 0 0 0 0 0 0 0 0 0 0 1 0"/>
<feBlend mode="normal" in2="BackgroundImageFix" result="effect1_dropShadow_43_197"/>
<feBlend mode="normal" in="SourceGraphic" in2="effect1_dropShadow_43_197" result="shape"/>
</filter>
</defs>
</svg>
