<svg width="230" height="230" viewBox="0 0 230 230" fill="none" xmlns="http://www.w3.org/2000/svg">
<mask id="path-1-inside-1_15_71" fill="white">
<path fill-rule="evenodd" clip-rule="evenodd" d="M115 230C178.513 230 230 178.513 230 115C230 51.4873 178.513 6.10352e-05 115 6.10352e-05C51.4872 6.10352e-05 0 51.4873 0 115C0 178.513 51.4872 230 115 230ZM114.611 186.487C153.878 186.487 185.709 154.655 185.709 115.389C185.709 76.1223 153.878 44.2906 114.611 44.2906C75.3452 44.2906 43.5136 76.1223 43.5136 115.389C43.5136 154.655 75.3452 186.487 114.611 186.487Z"/>
</mask>
<path fill-rule="evenodd" clip-rule="evenodd" d="M115 230C178.513 230 230 178.513 230 115C230 51.4873 178.513 6.10352e-05 115 6.10352e-05C51.4872 6.10352e-05 0 51.4873 0 115C0 178.513 51.4872 230 115 230ZM114.611 186.487C153.878 186.487 185.709 154.655 185.709 115.389C185.709 76.1223 153.878 44.2906 114.611 44.2906C75.3452 44.2906 43.5136 76.1223 43.5136 115.389C43.5136 154.655 75.3452 186.487 114.611 186.487Z" fill="#C9C0FF"/>
<path d="M224 115C224 175.199 175.199 224 115 224V236C181.826 236 236 181.826 236 115H224ZM115 6.00006C175.199 6.00006 224 54.801 224 115H236C236 48.1736 181.826 -5.99994 115 -5.99994V6.00006ZM6 115C6 54.801 54.8009 6.00006 115 6.00006V-5.99994C48.1735 -5.99994 -6 48.1736 -6 115H6ZM115 224C54.8009 224 6 175.199 6 115H-6C-6 181.826 48.1735 236 115 236V224ZM179.709 115.389C179.709 151.341 150.564 180.487 114.611 180.487V192.487C157.192 192.487 191.709 157.969 191.709 115.389H179.709ZM114.611 50.2906C150.564 50.2906 179.709 79.436 179.709 115.389H191.709C191.709 72.8086 157.192 38.2906 114.611 38.2906V50.2906ZM49.5136 115.389C49.5136 79.436 78.6589 50.2906 114.611 50.2906V38.2906C72.0315 38.2906 37.5136 72.8086 37.5136 115.389H49.5136ZM114.611 180.487C78.6589 180.487 49.5136 151.341 49.5136 115.389H37.5136C37.5136 157.969 72.0315 192.487 114.611 192.487V180.487Z" fill="black" mask="url(#path-1-inside-1_15_71)"/>
<mask id="path-3-inside-2_15_71" fill="white">
<path fill-rule="evenodd" clip-rule="evenodd" d="M210.619 178.891C223.255 159.979 230 137.745 230 115H185.708C185.709 115.129 185.709 115.259 185.709 115.389C185.709 154.655 153.878 186.487 114.612 186.487C75.3452 186.487 43.5136 154.655 43.5136 115.389C43.5136 76.1223 75.3452 44.2906 114.612 44.2906C114.741 44.2906 114.871 44.291 115 44.2917V6.10352e-05C92.2552 6.10352e-05 70.0211 6.74469 51.1095 19.381C32.1978 32.0174 17.458 49.9779 8.7539 70.9914C0.0498278 92.0049 -2.22755 115.128 2.20974 137.435C6.64704 159.743 17.5997 180.234 33.6828 196.317C49.7658 212.4 70.2568 223.353 92.5646 227.79C114.872 232.228 137.995 229.95 159.009 221.246C180.022 212.542 197.983 197.802 210.619 178.891Z"/>
</mask>
<path fill-rule="evenodd" clip-rule="evenodd" d="M210.619 178.891C223.255 159.979 230 137.745 230 115H185.708C185.709 115.129 185.709 115.259 185.709 115.389C185.709 154.655 153.878 186.487 114.612 186.487C75.3452 186.487 43.5136 154.655 43.5136 115.389C43.5136 76.1223 75.3452 44.2906 114.612 44.2906C114.741 44.2906 114.871 44.291 115 44.2917V6.10352e-05C92.2552 6.10352e-05 70.0211 6.74469 51.1095 19.381C32.1978 32.0174 17.458 49.9779 8.7539 70.9914C0.0498278 92.0049 -2.22755 115.128 2.20974 137.435C6.64704 159.743 17.5997 180.234 33.6828 196.317C49.7658 212.4 70.2568 223.353 92.5646 227.79C114.872 232.228 137.995 229.95 159.009 221.246C180.022 212.542 197.983 197.802 210.619 178.891Z" fill="#6859C5"/>
<path d="M230 115H236V109H230V115ZM210.619 178.891L215.608 182.224L215.608 182.224L210.619 178.891ZM185.708 115V109H179.677L179.709 115.032L185.708 115ZM115 44.2917L114.968 50.2916L121 50.3238V44.2917H115ZM115 6.10352e-05L121 6.10352e-05V-5.99994L115 -5.99994V6.10352e-05ZM51.1095 19.381L54.4429 24.3699L54.4429 24.3699L51.1095 19.381ZM8.7539 70.9914L3.21062 68.6953L3.21062 68.6953L8.7539 70.9914ZM2.20974 137.435L8.09446 136.265L8.09445 136.265L2.20974 137.435ZM33.6828 196.317L37.9254 192.075L37.9254 192.075L33.6828 196.317ZM92.5646 227.79L91.3941 233.675L91.3941 233.675L92.5646 227.79ZM159.009 221.246L156.712 215.703L156.712 215.703L159.009 221.246ZM224 115C224 136.558 217.607 157.632 205.63 175.557L215.608 182.224C228.903 162.326 236 138.932 236 115H224ZM185.708 121H230V109H185.708V121ZM179.709 115.032C179.709 115.151 179.709 115.27 179.709 115.389H191.709C191.709 115.248 191.709 115.108 191.708 114.968L179.709 115.032ZM179.709 115.389C179.709 151.341 150.564 180.487 114.612 180.487V192.487C157.192 192.487 191.709 157.969 191.709 115.389H179.709ZM114.612 180.487C78.6589 180.487 49.5136 151.341 49.5136 115.389H37.5136C37.5136 157.969 72.0315 192.487 114.612 192.487V180.487ZM49.5136 115.389C49.5136 79.436 78.6589 50.2906 114.612 50.2906V38.2906C72.0315 38.2906 37.5136 72.8086 37.5136 115.389H49.5136ZM114.612 50.2906C114.73 50.2906 114.849 50.291 114.968 50.2916L115.032 38.2918C114.892 38.291 114.752 38.2906 114.612 38.2906V50.2906ZM109 6.10352e-05V44.2917H121V6.10352e-05L109 6.10352e-05ZM54.4429 24.3699C72.3678 12.3928 93.4418 6.00006 115 6.00006V-5.99994C91.0685 -5.99994 67.6744 1.09658 47.776 14.3922L54.4429 24.3699ZM14.2972 73.2875C22.5471 53.3704 36.5179 36.3469 54.4429 24.3699L47.776 14.3922C27.8777 27.6879 12.3688 46.5855 3.21062 68.6953L14.2972 73.2875ZM8.09445 136.265C3.88867 115.121 6.04723 93.2047 14.2972 73.2875L3.21062 68.6953C-5.94758 90.8052 -8.34378 115.134 -3.67497 138.606L8.09445 136.265ZM37.9254 192.075C22.6815 176.831 12.3002 157.409 8.09446 136.265L-3.67497 138.606C0.993841 162.078 12.518 183.638 29.4401 200.56L37.9254 192.075ZM93.7352 221.906C72.5912 217.7 53.1693 207.319 37.9254 192.075L29.4401 200.56C46.3623 217.482 67.9224 229.006 91.3941 233.675L93.7352 221.906ZM156.712 215.703C136.795 223.953 114.879 226.111 93.7352 221.906L91.3941 233.675C114.866 238.344 139.195 235.948 161.305 226.789L156.712 215.703ZM205.63 175.557C193.653 193.482 176.63 207.453 156.712 215.703L161.305 226.789C183.415 217.631 202.312 202.122 215.608 182.224L205.63 175.557Z" fill="black" mask="url(#path-3-inside-2_15_71)"/>
</svg>
